<?xml version="1.0" encoding="UTF-8" standalone="no" ?>
<!DOCTYPE svg PUBLIC "-//W3C//DTD SVG 1.1//EN" "http://www.w3.org/Graphics/SVG/1.1/DTD/svg11.dtd">
<svg xmlns="http://www.w3.org/2000/svg" xmlns:xlink="http://www.w3.org/1999/xlink" version="1.1" width="500" height="500" viewBox="0 0 500 500" xml:space="preserve">
<desc>Created with Fabric.js 4.6.0</desc>
<defs>
</defs>
<g transform="matrix(0.6 0 0 0.61 40.18 39.76)" id="JSe6jDcjJRubv9XUdxhj9"  >
<path style="stroke: rgb(30,14,151); stroke-width: 0; stroke-dasharray: none; stroke-linecap: butt; stroke-dashoffset: 0; stroke-linejoin: miter; stroke-miterlimit: 4; fill: rgb(214,214,214); fill-rule: nonzero; opacity: 1;" vector-effect="non-scaling-stroke"  transform=" translate(0, 0)" d="M 0 -32.01024 C 17.66965 -32.01024 32.01024 -17.669650000000004 32.01024 0 C 32.01024 17.66965 17.669650000000004 32.01024 0 32.01024 C -17.66965 32.01024 -32.01024 17.669650000000004 -32.01024 0 C -32.01024 -17.66965 -17.669650000000004 -32.01024 0 -32.01024 z" stroke-linecap="round" />
</g>
<g transform="matrix(0.6 0 0 0.61 100 40.47)" id="6wDnx3WiXZOuAFNZcov6e"  >
<path style="stroke: rgb(30,14,151); stroke-width: 0; stroke-dasharray: none; stroke-linecap: butt; stroke-dashoffset: 0; stroke-linejoin: miter; stroke-miterlimit: 4; fill: rgb(214,214,214); fill-rule: nonzero; opacity: 1;" vector-effect="non-scaling-stroke"  transform=" translate(0, 0)" d="M 0 -32.01024 C 17.66965 -32.01024 32.01024 -17.669650000000004 32.01024 0 C 32.01024 17.66965 17.669650000000004 32.01024 0 32.01024 C -17.66965 32.01024 -32.01024 17.669650000000004 -32.01024 0 C -32.01024 -17.66965 -17.669650000000004 -32.01024 0 -32.01024 z" stroke-linecap="round" />
</g>
<g transform="matrix(0.6 0 0 0.61 159.21 39.53)" id="9gEDQGkcY2U40fVB6A4Gu"  >
<path style="stroke: rgb(30,14,151); stroke-width: 0; stroke-dasharray: none; stroke-linecap: butt; stroke-dashoffset: 0; stroke-linejoin: miter; stroke-miterlimit: 4; fill: rgb(214,214,214); fill-rule: nonzero; opacity: 1;" vector-effect="non-scaling-stroke"  transform=" translate(0, 0)" d="M 0 -32.01024 C 17.66965 -32.01024 32.01024 -17.669650000000004 32.01024 0 C 32.01024 17.66965 17.669650000000004 32.01024 0 32.01024 C -17.66965 32.01024 -32.01024 17.669650000000004 -32.01024 0 C -32.01024 -17.66965 -17.669650000000004 -32.01024 0 -32.01024 z" stroke-linecap="round" />
</g>
<g transform="matrix(0.6 0 0 0.61 219.21 39.53)" id="Pj9IVkCzxwA6XU9NFDnhV"  >
<path style="stroke: rgb(30,14,151); stroke-width: 0; stroke-dasharray: none; stroke-linecap: butt; stroke-dashoffset: 0; stroke-linejoin: miter; stroke-miterlimit: 4; fill: rgb(214,214,214); fill-rule: nonzero; opacity: 1;" vector-effect="non-scaling-stroke"  transform=" translate(0, 0)" d="M 0 -32.01024 C 17.66965 -32.01024 32.01024 -17.669650000000004 32.01024 0 C 32.01024 17.66965 17.669650000000004 32.01024 0 32.01024 C -17.66965 32.01024 -32.01024 17.669650000000004 -32.01024 0 C -32.01024 -17.66965 -17.669650000000004 -32.01024 0 -32.01024 z" stroke-linecap="round" />
</g>
<g transform="matrix(0.6 0 0 0.61 279.21 39.53)" id="vaFV39K4VozQGl8lwWHqi"  >
<path style="stroke: rgb(30,14,151); stroke-width: 0; stroke-dasharray: none; stroke-linecap: butt; stroke-dashoffset: 0; stroke-linejoin: miter; stroke-miterlimit: 4; fill: rgb(214,214,214); fill-rule: nonzero; opacity: 1;" vector-effect="non-scaling-stroke"  transform=" translate(0, 0)" d="M 0 -32.01024 C 17.66965 -32.01024 32.01024 -17.669650000000004 32.01024 0 C 32.01024 17.66965 17.669650000000004 32.01024 0 32.01024 C -17.66965 32.01024 -32.01024 17.669650000000004 -32.01024 0 C -32.01024 -17.66965 -17.669650000000004 -32.01024 0 -32.01024 z" stroke-linecap="round" />
</g>
<g transform="matrix(0.6 0 0 0.61 339.21 39.53)" id="tAyViN4ruECjsbNFlH5Pv"  >
<path style="stroke: rgb(30,14,151); stroke-width: 0; stroke-dasharray: none; stroke-linecap: butt; stroke-dashoffset: 0; stroke-linejoin: miter; stroke-miterlimit: 4; fill: rgb(214,214,214); fill-rule: nonzero; opacity: 1;" vector-effect="non-scaling-stroke"  transform=" translate(0, 0)" d="M 0 -32.01024 C 17.66965 -32.01024 32.01024 -17.669650000000004 32.01024 0 C 32.01024 17.66965 17.669650000000004 32.01024 0 32.01024 C -17.66965 32.01024 -32.01024 17.669650000000004 -32.01024 0 C -32.01024 -17.66965 -17.669650000000004 -32.01024 0 -32.01024 z" stroke-linecap="round" />
</g>
<g transform="matrix(0.6 0 0 0.61 399.21 39.53)" id="B4i9ploBpQSCV8zfvr11Z"  >
<path style="stroke: rgb(30,14,151); stroke-width: 0; stroke-dasharray: none; stroke-linecap: butt; stroke-dashoffset: 0; stroke-linejoin: miter; stroke-miterlimit: 4; fill: rgb(214,214,214); fill-rule: nonzero; opacity: 1;" vector-effect="non-scaling-stroke"  transform=" translate(0, 0)" d="M 0 -32.01024 C 17.66965 -32.01024 32.01024 -17.669650000000004 32.01024 0 C 32.01024 17.66965 17.669650000000004 32.01024 0 32.01024 C -17.66965 32.01024 -32.01024 17.669650000000004 -32.01024 0 C -32.01024 -17.66965 -17.669650000000004 -32.01024 0 -32.01024 z" stroke-linecap="round" />
</g>
<g transform="matrix(0.6 0 0 0.61 459.21 39.53)" id="7Prvo_SNIXDzm2PBL-xRq"  >
<path style="stroke: rgb(30,14,151); stroke-width: 0; stroke-dasharray: none; stroke-linecap: butt; stroke-dashoffset: 0; stroke-linejoin: miter; stroke-miterlimit: 4; fill: rgb(214,214,214); fill-rule: nonzero; opacity: 1;" vector-effect="non-scaling-stroke"  transform=" translate(0, 0)" d="M 0 -32.01024 C 17.66965 -32.01024 32.01024 -17.669650000000004 32.01024 0 C 32.01024 17.66965 17.669650000000004 32.01024 0 32.01024 C -17.66965 32.01024 -32.01024 17.669650000000004 -32.01024 0 C -32.01024 -17.66965 -17.669650000000004 -32.01024 0 -32.01024 z" stroke-linecap="round" />
</g>
<g transform="matrix(0.6 0 0 0.61 39.21 99.76)" id="zClI03aX6QuSwb6cVfEUf"  >
<path style="stroke: rgb(30,14,151); stroke-width: 0; stroke-dasharray: none; stroke-linecap: butt; stroke-dashoffset: 0; stroke-linejoin: miter; stroke-miterlimit: 4; fill: rgb(214,214,214); fill-rule: nonzero; opacity: 1;" vector-effect="non-scaling-stroke"  transform=" translate(0, 0)" d="M 0 -32.01024 C 17.66965 -32.01024 32.01024 -17.669650000000004 32.01024 0 C 32.01024 17.66965 17.669650000000004 32.01024 0 32.01024 C -17.66965 32.01024 -32.01024 17.669650000000004 -32.01024 0 C -32.01024 -17.66965 -17.669650000000004 -32.01024 0 -32.01024 z" stroke-linecap="round" />
</g>
<g transform="matrix(0.6 0 0 0.61 99.04 100.47)" id="JNmarFjiBSo2QnHEc_Hm8"  >
<path style="stroke: rgb(30,14,151); stroke-width: 0; stroke-dasharray: none; stroke-linecap: butt; stroke-dashoffset: 0; stroke-linejoin: miter; stroke-miterlimit: 4; fill: rgb(214,214,214); fill-rule: nonzero; opacity: 1;" vector-effect="non-scaling-stroke"  transform=" translate(0, 0)" d="M 0 -32.01024 C 17.66965 -32.01024 32.01024 -17.669650000000004 32.01024 0 C 32.01024 17.66965 17.669650000000004 32.01024 0 32.01024 C -17.66965 32.01024 -32.01024 17.669650000000004 -32.01024 0 C -32.01024 -17.66965 -17.669650000000004 -32.01024 0 -32.01024 z" stroke-linecap="round" />
</g>
<g transform="matrix(0.6 0 0 0.61 158.24 99.53)" id="EHiajq_-pVkzvfGR2zu8j"  >
<path style="stroke: rgb(30,14,151); stroke-width: 0; stroke-dasharray: none; stroke-linecap: butt; stroke-dashoffset: 0; stroke-linejoin: miter; stroke-miterlimit: 4; fill: rgb(214,214,214); fill-rule: nonzero; opacity: 1;" vector-effect="non-scaling-stroke"  transform=" translate(0, 0)" d="M 0 -32.01024 C 17.66965 -32.01024 32.01024 -17.669650000000004 32.01024 0 C 32.01024 17.66965 17.669650000000004 32.01024 0 32.01024 C -17.66965 32.01024 -32.01024 17.669650000000004 -32.01024 0 C -32.01024 -17.66965 -17.669650000000004 -32.01024 0 -32.01024 z" stroke-linecap="round" />
</g>
<g transform="matrix(0.6 0 0 0.61 218.24 99.53)" id="bPpVWHZjvokqP7aXADv7I"  >
<path style="stroke: rgb(30,14,151); stroke-width: 0; stroke-dasharray: none; stroke-linecap: butt; stroke-dashoffset: 0; stroke-linejoin: miter; stroke-miterlimit: 4; fill: rgb(214,214,214); fill-rule: nonzero; opacity: 1;" vector-effect="non-scaling-stroke"  transform=" translate(0, 0)" d="M 0 -32.01024 C 17.66965 -32.01024 32.01024 -17.669650000000004 32.01024 0 C 32.01024 17.66965 17.669650000000004 32.01024 0 32.01024 C -17.66965 32.01024 -32.01024 17.669650000000004 -32.01024 0 C -32.01024 -17.66965 -17.669650000000004 -32.01024 0 -32.01024 z" stroke-linecap="round" />
</g>
<g transform="matrix(0.6 0 0 0.61 278.24 99.53)" id="ie3BstdqXI-7fURe0LP-1"  >
<path style="stroke: rgb(30,14,151); stroke-width: 0; stroke-dasharray: none; stroke-linecap: butt; stroke-dashoffset: 0; stroke-linejoin: miter; stroke-miterlimit: 4; fill: rgb(214,214,214); fill-rule: nonzero; opacity: 1;" vector-effect="non-scaling-stroke"  transform=" translate(0, 0)" d="M 0 -32.01024 C 17.66965 -32.01024 32.01024 -17.669650000000004 32.01024 0 C 32.01024 17.66965 17.669650000000004 32.01024 0 32.01024 C -17.66965 32.01024 -32.01024 17.669650000000004 -32.01024 0 C -32.01024 -17.66965 -17.669650000000004 -32.01024 0 -32.01024 z" stroke-linecap="round" />
</g>
<g transform="matrix(0.6 0 0 0.61 338.24 99.53)" id="SLpG-x8U91wUPUXxt-39e"  >
<path style="stroke: rgb(30,14,151); stroke-width: 0; stroke-dasharray: none; stroke-linecap: butt; stroke-dashoffset: 0; stroke-linejoin: miter; stroke-miterlimit: 4; fill: rgb(214,214,214); fill-rule: nonzero; opacity: 1;" vector-effect="non-scaling-stroke"  transform=" translate(0, 0)" d="M 0 -32.01024 C 17.66965 -32.01024 32.01024 -17.669650000000004 32.01024 0 C 32.01024 17.66965 17.669650000000004 32.01024 0 32.01024 C -17.66965 32.01024 -32.01024 17.669650000000004 -32.01024 0 C -32.01024 -17.66965 -17.669650000000004 -32.01024 0 -32.01024 z" stroke-linecap="round" />
</g>
<g transform="matrix(0.6 0 0 0.61 398.24 99.53)" id="Z6X4nB_ObTZPqeeL1l1oH"  >
<path style="stroke: rgb(30,14,151); stroke-width: 0; stroke-dasharray: none; stroke-linecap: butt; stroke-dashoffset: 0; stroke-linejoin: miter; stroke-miterlimit: 4; fill: rgb(214,214,214); fill-rule: nonzero; opacity: 1;" vector-effect="non-scaling-stroke"  transform=" translate(0, 0)" d="M 0 -32.01024 C 17.66965 -32.01024 32.01024 -17.669650000000004 32.01024 0 C 32.01024 17.66965 17.669650000000004 32.01024 0 32.01024 C -17.66965 32.01024 -32.01024 17.669650000000004 -32.01024 0 C -32.01024 -17.66965 -17.669650000000004 -32.01024 0 -32.01024 z" stroke-linecap="round" />
</g>
<g transform="matrix(0.6 0 0 0.61 458.24 99.53)" id="aOKtrbeyJFC77R2mfGDGu"  >
<path style="stroke: rgb(30,14,151); stroke-width: 0; stroke-dasharray: none; stroke-linecap: butt; stroke-dashoffset: 0; stroke-linejoin: miter; stroke-miterlimit: 4; fill: rgb(214,214,214); fill-rule: nonzero; opacity: 1;" vector-effect="non-scaling-stroke"  transform=" translate(0, 0)" d="M 0 -32.01024 C 17.66965 -32.01024 32.01024 -17.669650000000004 32.01024 0 C 32.01024 17.66965 17.669650000000004 32.01024 0 32.01024 C -17.66965 32.01024 -32.01024 17.669650000000004 -32.01024 0 C -32.01024 -17.66965 -17.669650000000004 -32.01024 0 -32.01024 z" stroke-linecap="round" />
</g>
<g transform="matrix(0.6 0 0 0.61 39.21 159.76)" id="Ef0cgSWzIz_DdZRFTcAFU"  >
<path style="stroke: rgb(30,14,151); stroke-width: 0; stroke-dasharray: none; stroke-linecap: butt; stroke-dashoffset: 0; stroke-linejoin: miter; stroke-miterlimit: 4; fill: rgb(214,214,214); fill-rule: nonzero; opacity: 1;" vector-effect="non-scaling-stroke"  transform=" translate(0, 0)" d="M 0 -32.01024 C 17.66965 -32.01024 32.01024 -17.669650000000004 32.01024 0 C 32.01024 17.66965 17.669650000000004 32.01024 0 32.01024 C -17.66965 32.01024 -32.01024 17.669650000000004 -32.01024 0 C -32.01024 -17.66965 -17.669650000000004 -32.01024 0 -32.01024 z" stroke-linecap="round" />
</g>
<g transform="matrix(0.6 0 0 0.61 99.04 160.47)" id="mSPXz7uARrg9ACD1sJU8u"  >
<path style="stroke: rgb(30,14,151); stroke-width: 0; stroke-dasharray: none; stroke-linecap: butt; stroke-dashoffset: 0; stroke-linejoin: miter; stroke-miterlimit: 4; fill: rgb(214,214,214); fill-rule: nonzero; opacity: 1;" vector-effect="non-scaling-stroke"  transform=" translate(0, 0)" d="M 0 -32.01024 C 17.66965 -32.01024 32.01024 -17.669650000000004 32.01024 0 C 32.01024 17.66965 17.669650000000004 32.01024 0 32.01024 C -17.66965 32.01024 -32.01024 17.669650000000004 -32.01024 0 C -32.01024 -17.66965 -17.669650000000004 -32.01024 0 -32.01024 z" stroke-linecap="round" />
</g>
<g transform="matrix(0.6 0 0 0.61 158.24 159.53)" id="Fpwu39lLIFv15hl8L-hQA"  >
<path style="stroke: rgb(30,14,151); stroke-width: 0; stroke-dasharray: none; stroke-linecap: butt; stroke-dashoffset: 0; stroke-linejoin: miter; stroke-miterlimit: 4; fill: rgb(214,214,214); fill-rule: nonzero; opacity: 1;" vector-effect="non-scaling-stroke"  transform=" translate(0, 0)" d="M 0 -32.01024 C 17.66965 -32.01024 32.01024 -17.669650000000004 32.01024 0 C 32.01024 17.66965 17.669650000000004 32.01024 0 32.01024 C -17.66965 32.01024 -32.01024 17.669650000000004 -32.01024 0 C -32.01024 -17.66965 -17.669650000000004 -32.01024 0 -32.01024 z" stroke-linecap="round" />
</g>
<g transform="matrix(0.6 0 0 0.61 218.24 159.53)" id="sjfslztWMGK-rF4DJp4_Q"  >
<path style="stroke: rgb(30,14,151); stroke-width: 0; stroke-dasharray: none; stroke-linecap: butt; stroke-dashoffset: 0; stroke-linejoin: miter; stroke-miterlimit: 4; fill: rgb(214,214,214); fill-rule: nonzero; opacity: 1;" vector-effect="non-scaling-stroke"  transform=" translate(0, 0)" d="M 0 -32.01024 C 17.66965 -32.01024 32.01024 -17.669650000000004 32.01024 0 C 32.01024 17.66965 17.669650000000004 32.01024 0 32.01024 C -17.66965 32.01024 -32.01024 17.669650000000004 -32.01024 0 C -32.01024 -17.66965 -17.669650000000004 -32.01024 0 -32.01024 z" stroke-linecap="round" />
</g>
<g transform="matrix(0.6 0 0 0.61 278.24 159.53)" id="38PJuBocdQVit06IJTXPx"  >
<path style="stroke: rgb(30,14,151); stroke-width: 0; stroke-dasharray: none; stroke-linecap: butt; stroke-dashoffset: 0; stroke-linejoin: miter; stroke-miterlimit: 4; fill: rgb(214,214,214); fill-rule: nonzero; opacity: 1;" vector-effect="non-scaling-stroke"  transform=" translate(0, 0)" d="M 0 -32.01024 C 17.66965 -32.01024 32.01024 -17.669650000000004 32.01024 0 C 32.01024 17.66965 17.669650000000004 32.01024 0 32.01024 C -17.66965 32.01024 -32.01024 17.669650000000004 -32.01024 0 C -32.01024 -17.66965 -17.669650000000004 -32.01024 0 -32.01024 z" stroke-linecap="round" />
</g>
<g transform="matrix(0.6 0 0 0.61 338.24 159.53)" id="OeE14TIPyr_7YruwFWW7X"  >
<path style="stroke: rgb(30,14,151); stroke-width: 0; stroke-dasharray: none; stroke-linecap: butt; stroke-dashoffset: 0; stroke-linejoin: miter; stroke-miterlimit: 4; fill: rgb(214,214,214); fill-rule: nonzero; opacity: 1;" vector-effect="non-scaling-stroke"  transform=" translate(0, 0)" d="M 0 -32.01024 C 17.66965 -32.01024 32.01024 -17.669650000000004 32.01024 0 C 32.01024 17.66965 17.669650000000004 32.01024 0 32.01024 C -17.66965 32.01024 -32.01024 17.669650000000004 -32.01024 0 C -32.01024 -17.66965 -17.669650000000004 -32.01024 0 -32.01024 z" stroke-linecap="round" />
</g>
<g transform="matrix(0.6 0 0 0.61 398.24 159.53)" id="xelBKMznc5xjBFTUD5SC5"  >
<path style="stroke: rgb(30,14,151); stroke-width: 0; stroke-dasharray: none; stroke-linecap: butt; stroke-dashoffset: 0; stroke-linejoin: miter; stroke-miterlimit: 4; fill: rgb(214,214,214); fill-rule: nonzero; opacity: 1;" vector-effect="non-scaling-stroke"  transform=" translate(0, 0)" d="M 0 -32.01024 C 17.66965 -32.01024 32.01024 -17.669650000000004 32.01024 0 C 32.01024 17.66965 17.669650000000004 32.01024 0 32.01024 C -17.66965 32.01024 -32.01024 17.669650000000004 -32.01024 0 C -32.01024 -17.66965 -17.669650000000004 -32.01024 0 -32.01024 z" stroke-linecap="round" />
</g>
<g transform="matrix(0.6 0 0 0.61 458.24 159.53)" id="k2T0yEdfHBK0fglt7266n"  >
<path style="stroke: rgb(30,14,151); stroke-width: 0; stroke-dasharray: none; stroke-linecap: butt; stroke-dashoffset: 0; stroke-linejoin: miter; stroke-miterlimit: 4; fill: rgb(214,214,214); fill-rule: nonzero; opacity: 1;" vector-effect="non-scaling-stroke"  transform=" translate(0, 0)" d="M 0 -32.01024 C 17.66965 -32.01024 32.01024 -17.669650000000004 32.01024 0 C 32.01024 17.66965 17.669650000000004 32.01024 0 32.01024 C -17.66965 32.01024 -32.01024 17.669650000000004 -32.01024 0 C -32.01024 -17.66965 -17.669650000000004 -32.01024 0 -32.01024 z" stroke-linecap="round" />
</g>
<g transform="matrix(0.6 0 0 0.61 39.21 219.76)" id="GPN4TeXZm9_thqXJjU9hz"  >
<path style="stroke: rgb(30,14,151); stroke-width: 0; stroke-dasharray: none; stroke-linecap: butt; stroke-dashoffset: 0; stroke-linejoin: miter; stroke-miterlimit: 4; fill: rgb(214,214,214); fill-rule: nonzero; opacity: 1;" vector-effect="non-scaling-stroke"  transform=" translate(0, 0)" d="M 0 -32.01024 C 17.66965 -32.01024 32.01024 -17.669650000000004 32.01024 0 C 32.01024 17.66965 17.669650000000004 32.01024 0 32.01024 C -17.66965 32.01024 -32.01024 17.669650000000004 -32.01024 0 C -32.01024 -17.66965 -17.669650000000004 -32.01024 0 -32.01024 z" stroke-linecap="round" />
</g>
<g transform="matrix(0.6 0 0 0.61 99.04 220.47)" id="U1SDHNFvYzM4LlGBPLywq"  >
<path style="stroke: rgb(30,14,151); stroke-width: 0; stroke-dasharray: none; stroke-linecap: butt; stroke-dashoffset: 0; stroke-linejoin: miter; stroke-miterlimit: 4; fill: rgb(214,214,214); fill-rule: nonzero; opacity: 1;" vector-effect="non-scaling-stroke"  transform=" translate(0, 0)" d="M 0 -32.01024 C 17.66965 -32.01024 32.01024 -17.669650000000004 32.01024 0 C 32.01024 17.66965 17.669650000000004 32.01024 0 32.01024 C -17.66965 32.01024 -32.01024 17.669650000000004 -32.01024 0 C -32.01024 -17.66965 -17.669650000000004 -32.01024 0 -32.01024 z" stroke-linecap="round" />
</g>
<g transform="matrix(0.6 0 0 0.61 158.24 219.53)" id="mqD69KpL-_wVy1BsFaIG4"  >
<path style="stroke: rgb(30,14,151); stroke-width: 0; stroke-dasharray: none; stroke-linecap: butt; stroke-dashoffset: 0; stroke-linejoin: miter; stroke-miterlimit: 4; fill: rgb(214,214,214); fill-rule: nonzero; opacity: 1;" vector-effect="non-scaling-stroke"  transform=" translate(0, 0)" d="M 0 -32.01024 C 17.66965 -32.01024 32.01024 -17.669650000000004 32.01024 0 C 32.01024 17.66965 17.669650000000004 32.01024 0 32.01024 C -17.66965 32.01024 -32.01024 17.669650000000004 -32.01024 0 C -32.01024 -17.66965 -17.669650000000004 -32.01024 0 -32.01024 z" stroke-linecap="round" />
</g>
<g transform="matrix(0.6 0 0 0.61 218.24 219.53)" id="4jt7FtZw9I3_PTnYn55y9"  >
<path style="stroke: rgb(30,14,151); stroke-width: 0; stroke-dasharray: none; stroke-linecap: butt; stroke-dashoffset: 0; stroke-linejoin: miter; stroke-miterlimit: 4; fill: rgb(214,214,214); fill-rule: nonzero; opacity: 1;" vector-effect="non-scaling-stroke"  transform=" translate(0, 0)" d="M 0 -32.01024 C 17.66965 -32.01024 32.01024 -17.669650000000004 32.01024 0 C 32.01024 17.66965 17.669650000000004 32.01024 0 32.01024 C -17.66965 32.01024 -32.01024 17.669650000000004 -32.01024 0 C -32.01024 -17.66965 -17.669650000000004 -32.01024 0 -32.01024 z" stroke-linecap="round" />
</g>
<g transform="matrix(0.6 0 0 0.61 278.24 219.53)" id="BKC4w1hKwdQPD83oYNJSZ"  >
<path style="stroke: rgb(30,14,151); stroke-width: 0; stroke-dasharray: none; stroke-linecap: butt; stroke-dashoffset: 0; stroke-linejoin: miter; stroke-miterlimit: 4; fill: rgb(214,214,214); fill-rule: nonzero; opacity: 1;" vector-effect="non-scaling-stroke"  transform=" translate(0, 0)" d="M 0 -32.01024 C 17.66965 -32.01024 32.01024 -17.669650000000004 32.01024 0 C 32.01024 17.66965 17.669650000000004 32.01024 0 32.01024 C -17.66965 32.01024 -32.01024 17.669650000000004 -32.01024 0 C -32.01024 -17.66965 -17.669650000000004 -32.01024 0 -32.01024 z" stroke-linecap="round" />
</g>
<g transform="matrix(0.6 0 0 0.61 338.24 219.53)" id="FrVt3nEKCtUFhDo7qsQJ8"  >
<path style="stroke: rgb(30,14,151); stroke-width: 0; stroke-dasharray: none; stroke-linecap: butt; stroke-dashoffset: 0; stroke-linejoin: miter; stroke-miterlimit: 4; fill: rgb(214,214,214); fill-rule: nonzero; opacity: 1;" vector-effect="non-scaling-stroke"  transform=" translate(0, 0)" d="M 0 -32.01024 C 17.66965 -32.01024 32.01024 -17.669650000000004 32.01024 0 C 32.01024 17.66965 17.669650000000004 32.01024 0 32.01024 C -17.66965 32.01024 -32.01024 17.669650000000004 -32.01024 0 C -32.01024 -17.66965 -17.669650000000004 -32.01024 0 -32.01024 z" stroke-linecap="round" />
</g>
<g transform="matrix(0.6 0 0 0.61 398.24 219.53)" id="nXSAmAli2FC0_KGO3mtLK"  >
<path style="stroke: rgb(30,14,151); stroke-width: 0; stroke-dasharray: none; stroke-linecap: butt; stroke-dashoffset: 0; stroke-linejoin: miter; stroke-miterlimit: 4; fill: rgb(214,214,214); fill-rule: nonzero; opacity: 1;" vector-effect="non-scaling-stroke"  transform=" translate(0, 0)" d="M 0 -32.01024 C 17.66965 -32.01024 32.01024 -17.669650000000004 32.01024 0 C 32.01024 17.66965 17.669650000000004 32.01024 0 32.01024 C -17.66965 32.01024 -32.01024 17.669650000000004 -32.01024 0 C -32.01024 -17.66965 -17.669650000000004 -32.01024 0 -32.01024 z" stroke-linecap="round" />
</g>
<g transform="matrix(0.6 0 0 0.61 458.24 219.53)" id="Dt4rpgE2WzEl2re5npwDO"  >
<path style="stroke: rgb(30,14,151); stroke-width: 0; stroke-dasharray: none; stroke-linecap: butt; stroke-dashoffset: 0; stroke-linejoin: miter; stroke-miterlimit: 4; fill: rgb(214,214,214); fill-rule: nonzero; opacity: 1;" vector-effect="non-scaling-stroke"  transform=" translate(0, 0)" d="M 0 -32.01024 C 17.66965 -32.01024 32.01024 -17.669650000000004 32.01024 0 C 32.01024 17.66965 17.669650000000004 32.01024 0 32.01024 C -17.66965 32.01024 -32.01024 17.669650000000004 -32.01024 0 C -32.01024 -17.66965 -17.669650000000004 -32.01024 0 -32.01024 z" stroke-linecap="round" />
</g>
<g transform="matrix(0.6 0 0 0.61 39.21 279.76)" id="Ool_u7gwMmMyG9RdhrKMY"  >
<path style="stroke: rgb(30,14,151); stroke-width: 0; stroke-dasharray: none; stroke-linecap: butt; stroke-dashoffset: 0; stroke-linejoin: miter; stroke-miterlimit: 4; fill: rgb(214,214,214); fill-rule: nonzero; opacity: 1;" vector-effect="non-scaling-stroke"  transform=" translate(0, 0)" d="M 0 -32.01024 C 17.66965 -32.01024 32.01024 -17.669650000000004 32.01024 0 C 32.01024 17.66965 17.669650000000004 32.01024 0 32.01024 C -17.66965 32.01024 -32.01024 17.669650000000004 -32.01024 0 C -32.01024 -17.66965 -17.669650000000004 -32.01024 0 -32.01024 z" stroke-linecap="round" />
</g>
<g transform="matrix(0.6 0 0 0.61 99.04 280.47)" id="r0RUP34GVhC8PrbcoslL1"  >
<path style="stroke: rgb(30,14,151); stroke-width: 0; stroke-dasharray: none; stroke-linecap: butt; stroke-dashoffset: 0; stroke-linejoin: miter; stroke-miterlimit: 4; fill: rgb(214,214,214); fill-rule: nonzero; opacity: 1;" vector-effect="non-scaling-stroke"  transform=" translate(0, 0)" d="M 0 -32.01024 C 17.66965 -32.01024 32.01024 -17.669650000000004 32.01024 0 C 32.01024 17.66965 17.669650000000004 32.01024 0 32.01024 C -17.66965 32.01024 -32.01024 17.669650000000004 -32.01024 0 C -32.01024 -17.66965 -17.669650000000004 -32.01024 0 -32.01024 z" stroke-linecap="round" />
</g>
<g transform="matrix(0.6 0 0 0.61 158.24 279.53)" id="DBEqla_vpxXYsAlmpcvQv"  >
<path style="stroke: rgb(30,14,151); stroke-width: 0; stroke-dasharray: none; stroke-linecap: butt; stroke-dashoffset: 0; stroke-linejoin: miter; stroke-miterlimit: 4; fill: rgb(214,214,214); fill-rule: nonzero; opacity: 1;" vector-effect="non-scaling-stroke"  transform=" translate(0, 0)" d="M 0 -32.01024 C 17.66965 -32.01024 32.01024 -17.669650000000004 32.01024 0 C 32.01024 17.66965 17.669650000000004 32.01024 0 32.01024 C -17.66965 32.01024 -32.01024 17.669650000000004 -32.01024 0 C -32.01024 -17.66965 -17.669650000000004 -32.01024 0 -32.01024 z" stroke-linecap="round" />
</g>
<g transform="matrix(0.6 0 0 0.61 218.24 279.53)" id="jZYp77CK12AZXSd2SPibE"  >
<path style="stroke: rgb(30,14,151); stroke-width: 0; stroke-dasharray: none; stroke-linecap: butt; stroke-dashoffset: 0; stroke-linejoin: miter; stroke-miterlimit: 4; fill: rgb(214,214,214); fill-rule: nonzero; opacity: 1;" vector-effect="non-scaling-stroke"  transform=" translate(0, 0)" d="M 0 -32.01024 C 17.66965 -32.01024 32.01024 -17.669650000000004 32.01024 0 C 32.01024 17.66965 17.669650000000004 32.01024 0 32.01024 C -17.66965 32.01024 -32.01024 17.669650000000004 -32.01024 0 C -32.01024 -17.66965 -17.669650000000004 -32.01024 0 -32.01024 z" stroke-linecap="round" />
</g>
<g transform="matrix(0.6 0 0 0.61 278.24 279.53)" id="jXir35YrEKftDbvDH1JBr"  >
<path style="stroke: rgb(30,14,151); stroke-width: 0; stroke-dasharray: none; stroke-linecap: butt; stroke-dashoffset: 0; stroke-linejoin: miter; stroke-miterlimit: 4; fill: rgb(214,214,214); fill-rule: nonzero; opacity: 1;" vector-effect="non-scaling-stroke"  transform=" translate(0, 0)" d="M 0 -32.01024 C 17.66965 -32.01024 32.01024 -17.669650000000004 32.01024 0 C 32.01024 17.66965 17.669650000000004 32.01024 0 32.01024 C -17.66965 32.01024 -32.01024 17.669650000000004 -32.01024 0 C -32.01024 -17.66965 -17.669650000000004 -32.01024 0 -32.01024 z" stroke-linecap="round" />
</g>
<g transform="matrix(0.6 0 0 0.61 338.24 279.53)" id="TKR0inetiwOoqgJcjv67h"  >
<path style="stroke: rgb(30,14,151); stroke-width: 0; stroke-dasharray: none; stroke-linecap: butt; stroke-dashoffset: 0; stroke-linejoin: miter; stroke-miterlimit: 4; fill: rgb(214,214,214); fill-rule: nonzero; opacity: 1;" vector-effect="non-scaling-stroke"  transform=" translate(0, 0)" d="M 0 -32.01024 C 17.66965 -32.01024 32.01024 -17.669650000000004 32.01024 0 C 32.01024 17.66965 17.669650000000004 32.01024 0 32.01024 C -17.66965 32.01024 -32.01024 17.669650000000004 -32.01024 0 C -32.01024 -17.66965 -17.669650000000004 -32.01024 0 -32.01024 z" stroke-linecap="round" />
</g>
<g transform="matrix(0.6 0 0 0.61 398.24 279.53)" id="NhdHa7_6rkLMGjrm49nk8"  >
<path style="stroke: rgb(30,14,151); stroke-width: 0; stroke-dasharray: none; stroke-linecap: butt; stroke-dashoffset: 0; stroke-linejoin: miter; stroke-miterlimit: 4; fill: rgb(214,214,214); fill-rule: nonzero; opacity: 1;" vector-effect="non-scaling-stroke"  transform=" translate(0, 0)" d="M 0 -32.01024 C 17.66965 -32.01024 32.01024 -17.669650000000004 32.01024 0 C 32.01024 17.66965 17.669650000000004 32.01024 0 32.01024 C -17.66965 32.01024 -32.01024 17.669650000000004 -32.01024 0 C -32.01024 -17.66965 -17.669650000000004 -32.01024 0 -32.01024 z" stroke-linecap="round" />
</g>
<g transform="matrix(0.6 0 0 0.61 458.24 279.53)" id="tonE4vkpb4Y4Gh5t9UOCl"  >
<path style="stroke: rgb(30,14,151); stroke-width: 0; stroke-dasharray: none; stroke-linecap: butt; stroke-dashoffset: 0; stroke-linejoin: miter; stroke-miterlimit: 4; fill: rgb(214,214,214); fill-rule: nonzero; opacity: 1;" vector-effect="non-scaling-stroke"  transform=" translate(0, 0)" d="M 0 -32.01024 C 17.66965 -32.01024 32.01024 -17.669650000000004 32.01024 0 C 32.01024 17.66965 17.669650000000004 32.01024 0 32.01024 C -17.66965 32.01024 -32.01024 17.669650000000004 -32.01024 0 C -32.01024 -17.66965 -17.669650000000004 -32.01024 0 -32.01024 z" stroke-linecap="round" />
</g>
</svg>